<svg fill="#ffffff" width="32" height="32" xmlns="http://www.w3.org/2000/svg" xmlns:xlink="http://www.w3.org/1999/xlink">
  <defs>
    <path id="a" d="m0,0l32,0l0,32l-32,0l0,-32z"/>
  </defs>
  <g>
    <rect id="svg_2" fill="#ff7700" height="100%" width="100%"/>
    <g stroke="null" id="svg_12">
      <path stroke="null" id="svg_3" d="m22.97593,2.19457l-13.84332,0c-1.91499,0 -3.46083,1.54584 -3.46083,3.46083l0,20.76498c0,1.91499 1.54584,3.46083 3.46083,3.46083l13.84332,0c1.91499,0 3.46083,-1.54584 3.46083,-3.46083l0,-20.76498c0,-1.91499 -1.54584,-3.46083 -3.46083,-3.46083zm-4.61444,25.37942l-4.61444,0l0,-1.15361l4.61444,0l0,1.15361zm6.05645,-3.46083l-16.72734,0l0,-18.45776l16.72734,0l0,18.45776z" />
      <path stroke="null" id="svg_11" d="m23.37724,20.17645l-3.87842,-3.82362c0.52249,-0.8494 0.82891,-1.84313 0.82946,-2.90876c-0.00054,-3.10837 -2.55368,-5.62597 -5.70497,-5.62704c-3.15183,0.00107 -5.70606,2.51867 -5.70606,5.62651c0,3.10622 2.55423,5.62382 5.70606,5.62382c1.08145,0 2.08943,-0.30209 2.951,-0.8172l3.87951,3.82416l1.92343,-1.89786zm-12.28348,-6.73292c0.00327,-1.922 1.58,-3.47592 3.52901,-3.48021c1.94792,0.00429 3.52574,1.55821 3.52901,3.48021c-0.00381,1.92093 -1.58109,3.47485 -3.52901,3.47914c-1.94901,-0.00429 -3.52574,-1.55821 -3.52901,-3.47914z" stroke-width="NaN" fill="#ffffff"/>
    </g>
  </g>
</svg>